<svg xmlns="http://www.w3.org/2000/svg" xmlns:xlink="http://www.w3.org/1999/xlink" version="1.1" x="0px" y="0px" viewBox="0 0 100 125" enable-background="new 0 0 100 100" xml:space="preserve"><g><line fill="#000000" stroke="#F7F8F8" stroke-width="0" stroke-linecap="round" stroke-linejoin="round" x1="50" y1="9" x2="50" y2="9"/><g><polygon fill="#000000" points="58.3,31.2 58.3,34.5 78.2,34.5 78.2,90.9 21.8,90.9 21.8,34.5 41.7,34.5 41.7,31.2 18.5,31.2     18.5,94.2 81.5,94.2 81.5,31.2   "/><path fill="#000000" d="M48.3,39.6v23.1h3.3V39.6V26.7V12.1l11,11l2.3-2.3l-15-15l-15,15l2.3,2.3l11-11v14.6V39.6z M50,9L50,9    L50,9z"/></g></g><text x="0" y="115" fill="#000000" font-size="5px" font-weight="bold" font-family="'Helvetica Neue', Helvetica, Arial-Unicode, Arial, Sans-serif">Created by Shelley</text><text x="0" y="120" fill="#000000" font-size="5px" font-weight="bold" font-family="'Helvetica Neue', Helvetica, Arial-Unicode, Arial, Sans-serif">from the Noun Project</text></svg>