<?xml version="1.0" standalone="no"?>
<!DOCTYPE svg PUBLIC "-//W3C//DTD SVG 20010904//EN"
 "http://www.w3.org/TR/2001/REC-SVG-20010904/DTD/svg10.dtd">
<svg version="1.0" xmlns="http://www.w3.org/2000/svg"
 width="700.000000pt" height="700.000000pt" viewBox="0 0 700.000000 700.000000"
 preserveAspectRatio="xMidYMid meet">
<metadata>
Created by potrace 1.14, written by Peter Selinger 2001-2017
</metadata>
<g transform="translate(0.000000,700.000000) scale(0.100000,-0.100000)"
fill="#000000" stroke="none">
<path d="M5973 6760 c-29 -13 -118 -95 -282 -259 l-239 -240 424 -424 c233
-234 430 -430 438 -436 13 -11 55 27 254 227 143 144 246 254 257 278 25 54
25 129 -3 184 -15 32 -115 139 -334 357 -261 260 -320 313 -353 322 -59 16
-114 13 -162 -9z"/>
<path d="M1030 6559 c-290 -29 -527 -247 -580 -534 -11 -56 -13 -561 -13
-2520 0 -1347 3 -2473 6 -2500 37 -291 284 -532 577 -562 36 -3 1165 -6 2510
-6 2325 -1 2449 0 2520 18 277 66 469 279 506 560 4 28 7 651 7 1386 0 1048
-2 1346 -12 1382 -14 50 -62 107 -113 133 -79 41 -208 12 -262 -58 -51 -68
-49 -2 -50 -1453 l-1 -1360 -24 -48 c-27 -56 -91 -104 -153 -115 -24 -4 -1136
-7 -2473 -7 -2190 1 -2434 3 -2466 17 -51 22 -107 84 -122 134 -9 33 -12 577
-11 2486 0 2710 -6 2480 66 2548 70 68 -50 64 1573 65 1108 1 1477 5 1499 14
149 61 188 246 75 358 -26 26 -58 46 -86 54 -36 10 -353 12 -1477 13 -787 1
-1460 -2 -1496 -5z"/>
<path d="M3636 4447 c-824 -826 -1505 -1514 -1512 -1529 -23 -45 -374 -1103
-374 -1128 0 -55 66 -113 119 -104 30 5 962 313 1066 353 l70 26 1503 1503
c826 826 1502 1505 1502 1510 0 8 -862 872 -870 871 -3 0 -679 -676 -1504
-1502z"/>
</g>
</svg>
